<?xml version="1.0" encoding="utf-8"?>
<!-- Generator: Adobe Illustrator 19.0.0, SVG Export Plug-In . SVG Version: 6.00 Build 0)  -->
<svg version="1.1" id="图层_1" xmlns="http://www.w3.org/2000/svg" xmlns:xlink="http://www.w3.org/1999/xlink" x="0px" y="0px"
	 viewBox="-9 0 96 25" style="enable-background:new -9 0 96 25;" xml:space="preserve">
<style type="text/css">
	.st0{fill:#FFFFFF;}
</style>
<g id="XMLID_55_">
	<g id="XMLID_57_">
		<g id="XMLID_59_">
			<g id="XMLID_101_">
				<path id="XMLID_108_" class="st0" d="M0.2,8.6c0.2,0,0.3,0.2,0.3,0.2l0.2,1.3c0,0,0,0.3-0.1,0.5c0,0.3-0.3,0.4-0.3,0.4L-4,12.9
					h-0.1l-0.1-0.1l-0.1-0.4v-0.1c0-0.1,0.1-0.1,0.1-0.1L0,8.8C-0.1,8.8,0,8.6,0.2,8.6z"/>
				<path id="XMLID_107_" class="st0" d="M4.6,8.6c-0.2,0-0.3,0.2-0.3,0.2l-0.2,1.3c0,0,0,0.3,0,0.5c0.1,0.2,0.4,0.3,0.4,0.3
					l4.6,1.7h0.1l0.1-0.1L9.4,12v-0.1l-0.1-0.1L4.9,8.6C4.9,8.8,4.7,8.6,4.6,8.6z"/>
				<path id="XMLID_104_" class="st0" d="M6.5,15.1l4.2,1.5c0,0,0.1,0,0.2,0s0.1-0.1,0.1-0.1l0.3-1c0,0,0-0.1,0-0.2
					c0-0.1-0.1-0.1-0.1-0.1l-6.9-3.6c-0.7-0.4-0.7-1.2-0.7-1.2L3.4,8l0,0c0-0.4,0.6-0.3,0.7-0.2L8.5,10h0.1c0.1,0,0.1-0.1,0.1-0.1
					l0.2-0.5V9.3L8.8,9.2l-4.9-4c-0.5-0.4-0.7-0.8-0.7-1c0,0-0.1-0.7-0.4-0.8C2.5,3.2,2.2,3.2,1.9,3.3C1.5,3.5,1.4,4.2,1.4,4.2l0,0
					c0,0,0,0.6-0.7,1.1l-4,3.7l-0.1,0.1c0,0.1,0,0.1,0,0.1l0.2,0.7c0,0,0,0.1,0.1,0.1S-3,10-3,10l3.6-2.2C0.7,7.7,1.2,7.6,1.3,8l0,0
					l-0.1,2.4c0,0,0,0.8-0.7,1.2l-6.9,3.9c0,0-0.1,0-0.1,0.1s0,0.1,0,0.1l0.5,0.9c0,0,0,0.1,0.1,0.1s0.2,0,0.2,0l3.9-1.5
					c0.1,0,0.2,0,0.1,0.1l0,0L-5,18.2c0,0-0.1,0.1-0.2,0.3c0,0.2,0,0.3,0,0.3l1.1,2c0,0,0.1,0.1,0.2,0.1c0.2,0,0.2-0.1,0.2-0.1
					l4.3-5c0.1-0.1,0.2-0.1,0.2,0L0.6,23c0,0,0,0.2,0.1,0.3c0.1,0.1,0.2,0.1,0.2,0.1h2.8c0,0,0.2,0,0.2-0.1C4,23.2,4,23.1,4,23.1
					l-0.3-6.9c0-0.3,0.3-0.3,0.4-0.2l3.6,4.4c0,0,0.2,0.2,0.3,0.2c0.2,0,0.3-0.2,0.3-0.2l1.4-1.6c0,0,0.1-0.1,0.1-0.2
					s-0.1-0.2-0.1-0.2l-3.5-3.3l0,0C6.3,15,6.4,15.1,6.5,15.1z"/>
			</g>
			<g id="XMLID_85_">
				<g id="XMLID_93_">
					<path id="XMLID_97_" class="st0" d="M52.2,12.1c0.4-1.3-1-1.3-1-1.3h-0.6c-0.1,0-0.1-0.1-0.1-0.1c0.1-0.4,0.3-0.8,0.3-1.3h-2.1
						c0,0-0.1,0.6-0.3,1.4h-1.1l-0.6,1.9H48c-0.4,1-0.9,2.1-1.7,3.1c0,0,0.6,0.4,1.4,1.2c-0.5,0.6-1.2,1-2.1,1.4l-0.3,2
						c0,0,1.7-0.3,3.5-2.1c0.3,0.5,0.7,1,1,1.6l1.3-2.2c0,0-0.3-0.5-0.9-1.1C51.3,15.3,51.9,12.9,52.2,12.1z M49,15.6
						c-0.2-0.1-0.4-0.3-0.6-0.4c0,0,0.7-1,1.3-2.4h0.4c0.1,0,0.2,0.1,0.2,0.3C50.2,13.6,49.8,14.6,49,15.6z"/>
					<path id="XMLID_95_" class="st0" d="M58.3,10.2c-0.2-0.3-0.8-0.3-0.8-0.3H53l-0.5,1.6H55l0,0c0,0,0.5,0,0.3,0.5v0.1l-0.8,1.3
						h-2.1l-0.8,1.9h2.1c0.1,0,0.5,0.1,0.4,0.5l-0.4,1.7l0,0c0,0-0.1,0.7-0.9,0.8h-0.7l-0.4,1.6h2c0,0,0.7,0,1.2-0.4
						c0.4-0.4,0.5-0.9,0.5-0.9l0.6-3l0,0c0,0,0.1-0.3,0.4-0.3h1.1l0.8-1.9h-1.6l1.6-2.4C58.3,11,58.5,10.5,58.3,10.2z"/>
				</g>
				<path id="XMLID_90_" class="st0" d="M80.9,13.6L80.9,13.6l0.6-1v-0.1h-0.1H80c0,0-0.3,0-0.5,0.1s-0.3,0.3-0.3,0.3l-0.4,0.6l0,0
					l0,0l0,0c-0.1,0.1-0.2,0.3-0.4,0.3h-0.1l0,0c-0.2,0-0.3-0.1-0.3-0.2l0.3-1.4c0.1-0.3,0.4-0.4,0.5-0.4h3.3l0.4-1.8h-3.2
					c-0.4,0-0.5-0.2-0.5-0.3V9.5c-0.1-0.1-0.2-0.1-0.2-0.1H77v0.2l0,0c0,0,0,0.4-0.6,0.5h-3.2l-0.4,1.8H76l0,0c0,0,0.5,0,0.5,0.4
					c0,0,0,0,0,0.1l-0.2,1.1c0,0.1-0.1,0.3-0.4,0.3h-0.2l0,0c-0.2,0-0.3-0.2-0.3-0.3l0,0l0,0l0,0L75,12.7c0,0,0-0.2-0.2-0.3
					c-0.1-0.1-0.4-0.1-0.4-0.1h-1.3H73c0,0.1,0,0.1,0,0.1l0.3,1.1c0,0.1-0.1,0.3-0.4,0.3l0,0h-1.4L71,15.6h2.2
					c0.1,0,0.3,0.1,0.2,0.3c-0.4,0.7-1.2,1.6-2.6,2.1l-0.4,2c0,0,3.9-1,5.3-4.3l0,0l-0.9,4.2h2l0.7-3.7c0.6,2.7,3.8,4.3,3.8,4.3
					l0.4-2.3c-1.3-0.5-2-1.4-2.3-2.1c-0.1-0.3,0.1-0.4,0.2-0.4H82l0.4-1.8H81C80.8,13.8,80.9,13.6,80.9,13.6z"/>
				<path id="XMLID_87_" class="st0" d="M67.5,15.2h2.3l0.5-1.8h-4.4l0.2-0.9l0,0c0,0,0.1-0.3,0.5-0.3h0.1h2.8l0.5-1.8h-3
					c-0.5,0-0.4-0.4-0.4-0.4s0.1-0.3-0.1-0.4c-0.1-0.1-0.3-0.1-0.3-0.1h-1.4L64.7,10c-0.1,0.1-0.2,0.3-0.6,0.4h-2.9l-0.6,1.8h3.1
					c0.1,0,0.3,0,0.4,0.2c0.1,0.1,0,0.3,0,0.3L64,13.4h-4.5l-0.7,1.8h2.5c0.1,0,0.3,0.1,0.2,0.4c0,0,0,0,0,0.1
					c-0.4,0.6-1.2,1.7-2.8,2.3L58,20c0,0,4.3-1.2,5.6-4.6l-1,4.5h2l0.7-3.8c0.6,2.6,3.5,4,3.5,4l0.4-2c-1.3-0.6-1.8-1.8-2-2.5l0,0
					C67.3,15.6,67.1,15.3,67.5,15.2z"/>
			</g>
			<g id="XMLID_60_">
				<path id="XMLID_82_" class="st0" d="M31,19.9h2.8L32.3,9.4h-1.6h-1.2h-1.6l-5.7,10.5H25l1.2-2.3h4.3L31,19.9z M27.6,15.2l2.1-4
					l0.5,4H27.6z"/>
				<path id="XMLID_79_" class="st0" d="M16.1,9.4l-1,2.4h4.2l-2.8,8.1h3.3l3.7-10.5H16.1z M24,9.4l-0.8,2.4H26l1.3-2.4H24z"/>
				<path id="XMLID_61_" class="st0" d="M39.1,9.4h-2.9l-2.1,10.5h2.8h0.2L39.1,9.4z M38.1,17.5l-0.5,2.4h5l0.5-2.4H38.1z"/>
			</g>
		</g>
	</g>
</g>
</svg>
