<?xml version="1.0" encoding="utf-8"?>
<!-- Generator: Adobe Illustrator 19.0.0, SVG Export Plug-In . SVG Version: 6.00 Build 0)  -->
<svg version="1.1" id="图层_1" xmlns="http://www.w3.org/2000/svg" xmlns:xlink="http://www.w3.org/1999/xlink" x="0px" y="0px"
	 viewBox="0 0 96 25" style="enable-background:new 0 0 96 25;" xml:space="preserve">
<style type="text/css">
	.st0{fill:#E58811;}
	.st1{fill:#0D7BAF;}
	.st2{fill:#0D79AE;}
</style>
<g id="XMLID_55_">
	<g id="XMLID_57_">
		<g id="XMLID_59_">
			<g id="XMLID_101_">
				<path id="XMLID_108_" class="st0" d="M9.2,8.6c0.2,0,0.3,0.2,0.3,0.2l0.2,1.3c0,0,0,0.3-0.1,0.5C9.6,10.9,9.3,11,9.3,11L5,12.9
					c0,0-0.1,0-0.1,0c0,0-0.1-0.1-0.1-0.1l-0.1-0.4c0,0,0-0.1,0-0.1c0-0.1,0.1-0.1,0.1-0.1l4.2-3.4C8.9,8.8,9,8.6,9.2,8.6z"/>
				<path id="XMLID_107_" class="st0" d="M13.6,8.6c-0.2,0-0.3,0.2-0.3,0.2l-0.2,1.3c0,0,0,0.3,0,0.5c0.1,0.2,0.4,0.3,0.4,0.3
					l4.6,1.7c0,0,0.1,0,0.1,0c0,0,0.1-0.1,0.1-0.1l0.1-0.5c0,0,0-0.1,0-0.1c0,0-0.1-0.1-0.1-0.1l-4.4-3.2
					C13.9,8.8,13.7,8.6,13.6,8.6z"/>
				<path id="XMLID_104_" class="st1" d="M15.5,15.1l4.2,1.5c0,0,0.1,0,0.2,0c0.1,0,0.1-0.1,0.1-0.1l0.3-1c0,0,0-0.1,0-0.2
					c0-0.1-0.1-0.1-0.1-0.1l-6.9-3.6c-0.7-0.4-0.7-1.2-0.7-1.2L12.4,8c0,0,0,0,0,0c0-0.4,0.6-0.3,0.7-0.2l4.4,2.2c0,0,0.1,0,0.1,0
					c0.1,0,0.1-0.1,0.1-0.1l0.2-0.5c0,0,0-0.1,0-0.1c0,0-0.1-0.1-0.1-0.1l-4.9-4c-0.5-0.4-0.7-0.8-0.7-1c0,0-0.1-0.7-0.4-0.8
					c-0.3-0.2-0.6-0.2-0.9-0.1c-0.4,0.2-0.5,0.9-0.5,0.9h0c0,0,0,0.6-0.7,1.1L5.7,9c0,0-0.1,0.1-0.1,0.1c0,0.1,0,0.1,0,0.1l0.2,0.7
					c0,0,0,0.1,0.1,0.1c0.1,0,0.1,0,0.1,0l3.6-2.2c0.1-0.1,0.6-0.2,0.7,0.2l0,0l-0.1,2.4c0,0,0,0.8-0.7,1.2l-6.9,3.9
					c0,0-0.1,0-0.1,0.1c0,0.1,0,0.1,0,0.1l0.5,0.9c0,0,0,0.1,0.1,0.1c0.1,0,0.2,0,0.2,0l3.9-1.5c0.1,0,0.2,0,0.1,0.1c0,0,0,0,0,0
					l-3.3,2.9c0,0-0.1,0.1-0.2,0.3c0,0.2,0,0.3,0,0.3l1.1,2c0,0,0.1,0.1,0.2,0.1c0.2,0,0.2-0.1,0.2-0.1l4.3-5c0.1-0.1,0.2-0.1,0.2,0
					L9.6,23c0,0,0,0.2,0.1,0.3c0.1,0.1,0.2,0.1,0.2,0.1h2.8c0,0,0.2,0,0.2-0.1c0.1-0.1,0.1-0.2,0.1-0.2l-0.3-6.9
					c0-0.3,0.3-0.3,0.4-0.2l3.6,4.4c0,0,0.2,0.2,0.3,0.2c0.2,0,0.3-0.2,0.3-0.2l1.4-1.6c0,0,0.1-0.1,0.1-0.2c0-0.1-0.1-0.2-0.1-0.2
					l-3.5-3.3c0,0,0,0,0,0C15.3,15,15.4,15.1,15.5,15.1z"/>
			</g>
			<g id="XMLID_85_">
				<g id="XMLID_93_">
					<path id="XMLID_97_" class="st2" d="M61.2,12.1c0.4-1.3-1-1.3-1-1.3l-0.6,0c-0.1,0-0.1-0.1-0.1-0.1c0.1-0.4,0.3-0.8,0.3-1.3
						l-2.1,0c0,0-0.1,0.6-0.3,1.4l-1.1,0l-0.6,1.9H57c-0.4,1-0.9,2.1-1.7,3.1c0,0,0.6,0.4,1.4,1.2c-0.5,0.6-1.2,1-2.1,1.4l-0.3,2
						c0,0,1.7-0.3,3.5-2.1c0.3,0.5,0.7,1,1,1.6l1.3-2.2c0,0-0.3-0.5-0.9-1.1C60.3,15.3,60.9,12.9,61.2,12.1z M58,15.6
						c-0.2-0.1-0.4-0.3-0.6-0.4c0,0,0.7-1,1.3-2.4h0.4c0.1,0,0.2,0.1,0.2,0.3C59.2,13.6,58.8,14.6,58,15.6z"/>
					<path id="XMLID_95_" class="st2" d="M67.3,10.2c-0.2-0.3-0.8-0.3-0.8-0.3h-4.5l-0.5,1.6H64l0,0c0,0,0.5,0,0.3,0.5
						c0,0,0,0.1,0,0.1l-0.8,1.3l-2.1,0l-0.8,1.9h2.1c0.1,0,0.5,0.1,0.4,0.5l-0.4,1.7l0,0c0,0-0.1,0.7-0.9,0.8h-0.7l-0.4,1.6h2
						c0,0,0.7,0,1.2-0.4c0.4-0.4,0.5-0.9,0.5-0.9l0.6-3h0c0,0,0.1-0.3,0.4-0.3h1.1l0.8-1.9l-1.6,0l1.6-2.4
						C67.3,11,67.5,10.5,67.3,10.2z"/>
				</g>
				<path id="XMLID_90_" class="st2" d="M89.9,13.6L89.9,13.6l0.6-1c0,0,0-0.1,0-0.1c0,0-0.1,0-0.1,0H89c0,0-0.3,0-0.5,0.1
					c-0.2,0.1-0.3,0.3-0.3,0.3l-0.4,0.6l0,0c0,0,0,0,0,0l0,0c-0.1,0.1-0.2,0.3-0.4,0.3h-0.1c0,0,0,0,0,0c-0.2,0-0.3-0.1-0.3-0.2
					l0.3-1.4c0.1-0.3,0.4-0.4,0.5-0.4h3.3l0.4-1.8h-3.2c-0.4,0-0.5-0.2-0.5-0.3c0,0,0-0.2,0-0.2c-0.1-0.1-0.2-0.1-0.2-0.1H86l0,0.2
					l0,0c0,0,0,0.4-0.6,0.5h-3.2l-0.4,1.8h3.2h0c0,0,0.5,0,0.5,0.4c0,0,0,0,0,0.1l-0.2,1.1c0,0.1-0.1,0.3-0.4,0.3h-0.2c0,0,0,0,0,0
					c-0.2,0-0.3-0.2-0.3-0.3l0,0c0,0,0,0,0,0v0L84,12.7c0,0,0-0.2-0.2-0.3c-0.1-0.1-0.4-0.1-0.4-0.1l-1.3,0c0,0-0.1,0-0.1,0
					c0,0.1,0,0.1,0,0.1l0.3,1.1c0,0.1-0.1,0.3-0.4,0.3c0,0,0,0,0,0h-1.4l-0.5,1.8h2.2c0.1,0,0.3,0.1,0.2,0.3
					c-0.4,0.7-1.2,1.6-2.6,2.1L79.4,20c0,0,3.9-1,5.3-4.3h0l-0.9,4.2h2l0.7-3.7c0.6,2.7,3.8,4.3,3.8,4.3l0.4-2.3
					c-1.3-0.5-2-1.4-2.3-2.1c-0.1-0.3,0.1-0.4,0.2-0.4H91l0.4-1.8H90C89.8,13.8,89.9,13.6,89.9,13.6z"/>
				<path id="XMLID_87_" class="st2" d="M76.5,15.2h2.3l0.5-1.8h-4.4l0.2-0.9c0,0,0,0,0,0s0.1-0.3,0.5-0.3c0,0,0.1,0,0.1,0h2.8
					l0.5-1.8h-3c-0.5,0-0.4-0.4-0.4-0.4s0.1-0.3-0.1-0.4c-0.1-0.1-0.3-0.1-0.3-0.1h-1.4L73.7,10c-0.1,0.1-0.2,0.3-0.6,0.4h-2.9
					l-0.6,1.8h3.1c0.1,0,0.3,0,0.4,0.2c0.1,0.1,0,0.3,0,0.3L73,13.4h-4.5l-0.7,1.8h2.5c0.1,0,0.3,0.1,0.2,0.4c0,0,0,0,0,0.1
					c-0.4,0.6-1.2,1.7-2.8,2.3L67,20c0,0,4.3-1.2,5.6-4.6l-1,4.5h2l0.7-3.8c0.6,2.6,3.5,4,3.5,4l0.4-2c-1.3-0.6-1.8-1.8-2-2.5l0,0
					C76.3,15.6,76.1,15.3,76.5,15.2z"/>
			</g>
			<g id="XMLID_60_">
				<path id="XMLID_82_" class="st0" d="M40,19.9h2.8L41.3,9.4h-1.6h-1.2h-1.6l-5.7,10.5h2.8l1.2-2.3h4.3L40,19.9z M36.6,15.2l2.1-4
					l0.5,4H36.6z"/>
				<path id="XMLID_79_" class="st0" d="M25.1,9.4l-1,2.4h4.2l-2.8,8.1h3.3l3.7-10.5H25.1z M33,9.4l-0.8,2.4H35l1.3-2.4H33z"/>
				<path id="XMLID_61_" class="st0" d="M48.1,9.4h-2.9l-2.1,10.5h2.8h0.2L48.1,9.4z M47.1,17.5l-0.5,2.4h5l0.5-2.4H47.1z"/>
			</g>
		</g>
	</g>
</g>
</svg>
