<?xml version="1.0" encoding="utf-8"?>
<!-- Generator: Adobe Illustrator 19.0.0, SVG Export Plug-In . SVG Version: 6.00 Build 0)  -->
<svg version="1.1" id="图层_1" xmlns="http://www.w3.org/2000/svg" xmlns:xlink="http://www.w3.org/1999/xlink" x="0px" y="0px"
	 viewBox="-418 167 362 267" style="enable-background:new -418 167 362 267;" xml:space="preserve">
<style type="text/css">
	.st0{fill:#F6F7FE;}
	.st1{fill:none;stroke:#979797;stroke-dasharray:3,3;}
	.st2{fill:url(#path-2_2_);}
	.st3{filter:url(#filter-3);}
	.st4{filter:url(#filter-6);}
	.st5{fill:url(#path-5_2_);}
	.st6{fill:#253882;}
	.st7{fill:#FFFFFF;}
	.st8{filter:url(#filter-8);}
	.st9{fill:url(#path-7_2_);}
	.st10{fill:none;stroke:#616161;}
	.st11{filter:url(#filter-11);}
	.st12{fill:url(#path-10_2_);}
	.st13{fill:#5A381E;}
	.st14{fill:#F9677D;}
	.st15{fill:#F9D3C3;}
	.st16{fill:#FFE5DA;}
	.st17{fill:#403D39;}
	.st18{fill:#27BFFA;}
	.st19{fill:#3B434F;}
	.st20{fill:#FAD4C4;}
</style>
<filter  width="102.6%" height="142.4%" id="filter-8" filterUnits="objectBoundingBox" y="-10.6%" x="-1.3%">
	<feOffset  result="shadowOffsetOuter1" in="SourceAlpha" dy="6" dx="0"></feOffset>
	
		<feColorMatrix  type="matrix" values="0 0 0 0 0.220158376   0 0 0 0 0.131691202   0 0 0 0 0  0 0 0 0.0817481884 0" in="shadowOffsetOuter1">
		</feColorMatrix>
</filter>
<filter  width="105.2%" height="305.0%" id="filter-6" filterUnits="objectBoundingBox" y="-51.3%" x="-2.6%">
	<feOffset  result="shadowOffsetOuter1" in="SourceAlpha" dy="6" dx="0"></feOffset>
	
		<feColorMatrix  type="matrix" values="0 0 0 0 0.220158376   0 0 0 0 0.131691202   0 0 0 0 0  0 0 0 0.0817481884 0" in="shadowOffsetOuter1">
		</feColorMatrix>
</filter>
<filter  width="114.7%" height="142.7%" id="filter-3" filterUnits="objectBoundingBox" y="-21.4%" x="-7.3%">
	<feOffset  result="shadowOffsetInner1" in="SourceAlpha" dy="10" dx="0"></feOffset>
	<feComposite  k3="1" k2="-1" operator="arithmetic" in2="SourceAlpha" result="shadowInnerInner1" in="shadowOffsetInner1">
		</feComposite>
	<feColorMatrix  type="matrix" values="0 0 0 0 0   0 0 0 0 0   0 0 0 0 0  0 0 0 0.0787194293 0" in="shadowInnerInner1">
		</feColorMatrix>
</filter>
<filter  width="107.3%" height="120.7%" id="filter-11" filterUnits="objectBoundingBox" y="-5.2%" x="-3.6%">
	<feOffset  result="shadowOffsetOuter1" in="SourceAlpha" dy="3" dx="0"></feOffset>
	<feColorMatrix  type="matrix" values="0 0 0 0 0   0 0 0 0 0   0 0 0 0 0  0 0 0 0.08 0" in="shadowOffsetOuter1"></feColorMatrix>
</filter>
<title>job-placement-China-3</title>
<desc>Created with Sketch.</desc>
<g id="Welcome">
	<g id="service-careeradvice-web" transform="translate(-839.000000, -1253.000000)">
		<g id="_x33_" transform="translate(200.000000, 819.000000)">
			<g id="_x30_2" transform="translate(0.000000, 434.000000)">
				<g id="job-placement-China-3" transform="translate(639.000000, 0.000000)">
					<path id="Oval-8" class="st0" d="M-215.9,434c84.7,0,159.2-41,159.2-110.1s-19.3-154.4-115-156.1S-410,267.6-417,349.5
						C-424,431.5-300.6,434-215.9,434z"/>
					<path id="Path-12" class="st1" d="M-306,297c0,0-17.4,8.2-22.1,16.1c-4.7,7.9,8.2,25.6,2.3,37.5s-24,14.9-24,14.9"/>
					<g id="电脑" transform="translate(111.312661, 64.642105)">
						<g id="Rectangle-19">
							<g>
								
									<linearGradient id="path-2_2_" gradientUnits="userSpaceOnUse" x1="-940.6852" y1="529.2673" x2="-940.6852" y2="528.2673" gradientTransform="matrix(68.2177 0 0 -23.4114 63871.3047 12717.8643)">
									<stop  offset="0" style="stop-color:#FCCD42"/>
									<stop  offset="1" style="stop-color:#F3C02C"/>
								</linearGradient>
								<rect id="path-2" x="-334.2" y="327" class="st2" width="68.2" height="23.4"/>
							</g>
							<g class="st3">
								<rect id="path-2_3_" x="-334.2" y="327" width="68.2" height="23.4"/>
							</g>
						</g>
						<g id="Rectangle-19-Copy">
							<g class="st4">
								<rect id="path-5_2_" x="-356.6" y="350.4" width="115" height="5.9"/>
							</g>
							<g>
								
									<linearGradient id="path-5_2_" gradientUnits="userSpaceOnUse" x1="-943.1777" y1="507.9956" x2="-943.1777" y2="506.9956" gradientTransform="matrix(114.9956 0 0 -5.8528 108162.1484 3323.6108)">
									<stop  offset="0" style="stop-color:#FFD760"/>
									<stop  offset="0.2904" style="stop-color:#FDD971"/>
									<stop  offset="1" style="stop-color:#FFCF44"/>
								</linearGradient>
								<rect id="path-5_1_" x="-356.6" y="350.4" class="st5" width="115" height="5.9"/>
							</g>
						</g>
						<path id="Rectangle-18" class="st6" d="M-408,167h212.9c5.5,0,10,4.5,10,10v142.9c0,5.5-4.5,10-10,10H-408
							c-5.5,0-10-4.5-10-10V177C-418,171.5-413.5,167-408,167z"/>
						<rect id="Rectangle-18_1_" x="-405.3" y="179.7" class="st7" width="207.6" height="110.2"/>
						<g id="Rectangle-18_2_">
							<g class="st8">
								<path id="path-7_2_" d="M-418,301.6h232.9v18.3c0,5.5-4.5,10-10,10H-408c-5.5,0-10-4.5-10-10V301.6z"/>
							</g>
							<g>
								
									<linearGradient id="path-7_2_" gradientUnits="userSpaceOnUse" x1="-945.018" y1="530.4899" x2="-945.018" y2="529.4899" gradientTransform="matrix(232.9147 0 0 -28.2888 219807.0781 15308.5137)">
									<stop  offset="0" style="stop-color:#FFD760"/>
									<stop  offset="0.2904" style="stop-color:#FDD971"/>
									<stop  offset="1" style="stop-color:#FFCF44"/>
								</linearGradient>
								<path id="path-7_1_" class="st9" d="M-418,301.6h232.9v18.3c0,5.5-4.5,10-10,10H-408c-5.5,0-10-4.5-10-10V301.6z"/>
							</g>
						</g>
						<ellipse id="Oval-13" class="st10" cx="-301.1" cy="314.3" rx="5.8" ry="5.9"/>
						<g id="Rectangle-20">
							<g class="st11">
								<path id="path-10_2_" d="M-351.2,222.2h25.2c4.4,0,8,3.6,8,8v13c0,4.4-3.6,8-8,8h-25.2c-4.4,0-8-3.6-8-8v-13
									C-359.2,225.8-355.6,222.2-351.2,222.2z"/>
							</g>
							<g>
								
									<linearGradient id="path-10_2_" gradientUnits="userSpaceOnUse" x1="-936.6733" y1="529.6364" x2="-936.6733" y2="530.6364" gradientTransform="matrix(41.2253 0 0 -29.0131 38276.0977 15617.6318)">
									<stop  offset="0" style="stop-color:#26BEFA"/>
									<stop  offset="1" style="stop-color:#6FF3B4"/>
								</linearGradient>
								<path id="path-10_1_" class="st12" d="M-351.2,222.2h25.2c4.4,0,8,3.6,8,8v13c0,4.4-3.6,8-8,8h-25.2c-4.4,0-8-3.6-8-8v-13
									C-359.2,225.8-355.6,222.2-351.2,222.2z"/>
							</g>
						</g>
						<path id="Triangle" class="st7" d="M-336.4,235.3c0.9,0.6,0.9,1.6,0,2.2l-3,1.9c-0.9,0.6-1.7,0.2-1.7-0.9v-4.1
							c0-1.1,0.8-1.5,1.7-0.9L-336.4,235.3z"/>
					</g>
					<g id="女人" transform="translate(236.205000, 103.179661)">
						<path id="Shape-12" class="st13" d="M-368.5,217.1c-3.1,13.8-19.2,8.4-24.7,6.1v0c-5.5,2.3-21.6,7.7-24.7-6.1
							c0,0,5.6,0.1,3.9-17.7c0,0-6.1-35.1,20.8-32.2v0.1c26.9-2.9,20.8,32.1,20.8,32.1C-374.1,217.2-368.5,217.1-368.5,217.1
							L-368.5,217.1z"/>
						<path id="body-bg-flat-copy" class="st14" d="M-415.5,230.1c0,0-1-13.9,12-15.2h5.8v-2.7c0,0,4.1,1.8,8.3,0.2l0.1,2.5h6.8
							c0,0,11.7,0.5,11.2,15.3L-415.5,230.1L-415.5,230.1z"/>
						<path id="Shape-11-copy" class="st15" d="M-408,192.2c-0.2,0-0.3-0.1-0.6-0.1c-0.1,0-0.1,0-0.2,0c-0.1,0-0.1,0-0.2,0
							c-0.1,0-0.2,0-0.4,0.1c-0.5,0.1-1,0.5-1.3,1.2c-0.1,0.4-0.2,0.8-0.3,1.3c0,0.1,0,0.3,0,0.4c0,0.2,0,0.3,0,0.5
							c0,0.3,0.1,0.7,0.1,1.1c0,0-0.1,1.2,0.4,2.6c0.4,1.3,1.6,3,3.4,3.5c-0.2-3.4-0.5-6.9-0.7-10.4
							C-407.6,192.4-407.7,192.2-408,192.2z"/>
						<path id="Shape-11-copy_1" class="st15" d="M-378.4,192.2c0.2,0,0.3-0.1,0.6-0.1c0.1,0,0.1,0,0.2,0c0.1,0,0.1,0,0.2,0
							c0.1,0,0.2,0,0.4,0.1c0.5,0.1,1,0.5,1.3,1.2c0.1,0.4,0.2,0.8,0.3,1.3c0,0.1,0,0.3,0,0.4c0,0.2,0,0.3,0,0.5
							c0,0.3-0.1,0.7-0.1,1.1c0,0,0.1,1.2-0.4,2.6c-0.4,1.3-1.6,3-3.4,3.5c0.2-3.4,0.5-6.9,0.7-10.3
							C-378.9,192.4-378.7,192.3-378.4,192.2z"/>
						<path id="neck-copy-7" class="st15" d="M-388.4,210.6v4.6c0,2.7-2.2,4.9-4.9,4.9c-2.7,0-4.9-2.2-4.9-4.9v-4.7
							C-397.8,210.6-388.6,210.7-388.4,210.6z"/>
						<path id="_x32_-copy-5" class="st16" d="M-393.2,175.6c8.2,0,14.6,6.9,14.4,15.1l-0.2,8.8c-0.2,7.8-6.5,13.9-14.2,13.9
							s-14-6.2-14.2-13.9l-0.2-8.8C-407.8,182.5-401.4,175.6-393.2,175.6L-393.2,175.6z"/>
						<path id="usta" class="st17" d="M-387.7,206.3c-0.8,1-2.8,2-5,2c-2.2,0-4.1-1-5-2c0,0-0.1-0.3,0-0.5c0.1-0.2,0.3-0.1,0.3-0.1
							c0.8,1,2.4,1.9,4.6,1.9s3.8-0.9,4.6-1.9c0,0,0.2-0.1,0.3,0C-387.6,205.9-387.7,206.3-387.7,206.3L-387.7,206.3z"/>
						<path id="oko" class="st17" d="M-400.4,195.6c0.7,0,1.3,0.6,1.3,1.3s-0.6,1.3-1.3,1.3c-0.7,0-1.3-0.6-1.3-1.3
							S-401.2,195.6-400.4,195.6L-400.4,195.6z"/>
						<path id="oko_1" class="st17" d="M-385.9,195.6c0.7,0,1.3,0.6,1.3,1.3s-0.6,1.3-1.3,1.3c-0.7,0-1.3-0.6-1.3-1.3
							S-386.6,195.6-385.9,195.6L-385.9,195.6z"/>
						<path id="R-copy" class="st17" d="M-389.7,193.2l0.4,0.5l0.2,0.3c0,0,4.2-2.3,7.1,0.4l0.3,0.2c0,0-0.7-3.9-7-1.6
							C-389,193-389.3,193.1-389.7,193.2L-389.7,193.2z"/>
						<path id="L-copy" class="st17" d="M-396.9,193.2l-0.4,0.5l-0.2,0.3c0,0-4.2-2.3-7.1,0.4l-0.3,0.2c0,0,0.7-3.9,7-1.6
							C-397.6,193-397.3,193.1-396.9,193.2L-396.9,193.2z"/>
						<path id="Shape-15" class="st13" d="M-409.4,191.1c0,0,2.9-5.6,8.5-4.7c0,0,0.2,1.3,1.4,2.6c0,0,1.3-3.2,5.3-4.1
							c3.2-0.7,6.2-3.3,6.2-3.3s0.5,5.1,6.7,6.5c0,0,5.5,0.7,5.1-2.4c-0.4-3-3.4-16.2-18-14.2s-17.9,7.3-15.4,19.3"/>
					</g>
					<g id="男人" transform="translate(21.720000, 141.193220)">
						<path id="body-bg-flat" class="st18" d="M-417.8,240.5c0,0-1.9-16.6,14.6-18.5h7v-3.2c0,0,5,2.1,10,0.2l0.2,3h8.2
							c0,0,14.3,1.4,13.5,18.5H-417.8L-417.8,240.5z"/>
						<path id="Shape-34" class="st19" d="M-393.3,230.8l2.2-2.4l2.4,2.4l-1.3,1.3l2,8.4h-6.3l2.2-8.4L-393.3,230.8L-393.3,230.8z"
							/>
						<path id="Shape-11-copy_1_" class="st20" d="M-408.1,194.6c0,0-0.2-0.1-0.6-0.2c-0.2,0-0.4-0.1-0.7-0.1c-0.1,0-0.1,0-0.2,0
							c-0.1,0-0.1,0-0.2,0c-0.1,0-0.3,0-0.4,0.1c-0.6,0.1-1.2,0.5-1.5,1.2c-0.2,0.3-0.3,0.8-0.3,1.3c0,0.1,0,0.3,0,0.4
							c0,0.2,0,0.3,0,0.5c0,0.3,0.1,0.7,0.2,1.1c0,0-0.1,1.2,0.4,2.5c0.5,1.3,1.6,3,3.8,3.4C-407.8,201.5-407.8,198-408.1,194.6
							L-408.1,194.6L-408.1,194.6z"/>
						<path id="Shape-11-copy_1_1_" class="st15" d="M-373.8,194.6c0,0,0.2-0.1,0.6-0.2c0.2,0,0.4-0.1,0.7-0.1c0.1,0,0.1,0,0.2,0
							c0.1,0,0.1,0,0.2,0c0.1,0,0.3,0,0.4,0.1c0.6,0.1,1.2,0.5,1.5,1.2c0.2,0.3,0.3,0.8,0.3,1.3c0,0.1,0,0.3,0,0.4
							c0,0.2,0,0.3,0,0.5c0,0.3-0.1,0.7-0.2,1.1c0,0,0.1,1.2-0.4,2.5c-0.5,1.3-1.7,3-3.8,3.4C-374,201.5-374,198-373.8,194.6
							L-373.8,194.6L-373.8,194.6z"/>
						<path id="neck-copy-7_1_" class="st15" d="M-385.7,218.3v5c0,3-2.4,5.4-5.4,5.4c-3,0-5.4-2.4-5.4-5.4v-5.2
							C-396.2,218.2-385.9,218.4-385.7,218.3z"/>
						<path id="_x31_-copy-4" class="st16" d="M-390.9,174.8c10,0,17.6,8.2,17.2,17.5l-0.6,12.7c-1.6,8.6-8,14.8-16.6,15.7
							c-8.4-0.8-15-7.1-16.8-15.7l-0.6-12.7C-408.5,183-400.9,174.8-390.9,174.8L-390.9,174.8z"/>
						<path id="_x2D_" class="st17" d="M-382.4,207.9c-1.4,1.2-4.7,2.4-8.5,2.4c-3.8,0-7-1.2-8.5-2.4c0,0-0.1-0.4,0.1-0.6
							c0.2-0.2,0.6-0.2,0.6-0.2c1.4,1.2,4.1,2.3,7.8,2.3s6.4-1,7.8-2.3c0,0,0.4-0.1,0.5,0C-382.1,207.4-382.4,207.9-382.4,207.9
							L-382.4,207.9z"/>
						<path id="Rounded-Rectangle-8" class="st17" d="M-400.4,196.2h1.1c0.6,0,1.1,0.5,1.1,1.1s-0.5,1.1-1.1,1.1h-1.1
							c-0.6,0-1.1-0.5-1.1-1.1S-401,196.2-400.4,196.2L-400.4,196.2z"/>
						<path id="Rounded-Rectangle-8-copy" class="st17" d="M-382.3,196.2h1.1c0.6,0,1.1,0.5,1.1,1.1s-0.5,1.1-1.1,1.1h-1.1
							c-0.6,0-1.1-0.5-1.1-1.1S-382.9,196.2-382.3,196.2L-382.3,196.2z"/>
						<path id="R-copy_1_" class="st17" d="M-385.9,193.2c0,0,4.8-2.7,8,0.7l1.6,0c0,0-2-4.4-10.4-1.6l0.8,1.1"/>
						<path id="R-copy-3" class="st17" d="M-395.9,193.2c0,0-4.8-2.7-8,0.7l-1.6,0c0,0,2-4.4,10.4-1.6l-0.8,1.1"/>
						<path id="Shape-1" class="st13" d="M-407.6,191.8c0,0,5.2-2.6,4.6-11.6c0,0,8.3,9.1,28.4,6.3l0.9,8.5c0,0,11.8-21.7-9.3-26.7
							c-20.7-4.9-20.9,8-20.9,8s-6.3-0.9-6.9,5.2c-0.5,6.1,1.4,12.6,1.4,12.6l1.6,1.3L-407.6,191.8L-407.6,191.8z"/>
					</g>
				</g>
			</g>
		</g>
	</g>
</g>
</svg>
