<?xml version="1.0" encoding="utf-8"?>
<!-- Generator: Adobe Illustrator 19.0.0, SVG Export Plug-In . SVG Version: 6.00 Build 0)  -->
<svg version="1.1" id="图层_1" xmlns="http://www.w3.org/2000/svg" xmlns:xlink="http://www.w3.org/1999/xlink" x="0px" y="0px"
	 viewBox="0 0 15 13" style="enable-background:new 0 0 15 13;" xml:space="preserve">
<style type="text/css">
	.st0{fill:#FFFFFF;}
</style>
<path id="XMLID_5_" class="st0" d="M14.9,11.6L14.9,11.6l-6.8-11l0,0C8,0.4,7.8,0.3,7.5,0.3C7.3,0.3,7,0.4,6.9,0.6l0,0l-6.8,11l0,0
	C0,11.7,0,11.9,0,12c0,0.4,0.3,0.7,0.7,0.7c0,0,0,0,0,0v0h13.6v0c0.4,0,0.7-0.3,0.7-0.7C15,11.9,15,11.8,14.9,11.6z M7.5,11.3
	c-0.5,0-0.9-0.4-0.9-0.9S7,9.4,7.5,9.4s0.9,0.4,0.9,0.9S8,11.3,7.5,11.3z M8.4,7.8c0,0.5-0.4,0.9-0.9,0.9S6.6,8.3,6.6,7.8V4.3
	c0-0.5,0.4-0.9,0.9-0.9s0.9,0.4,0.9,0.9V7.8z"/>
</svg>
